<?xml version="1.0" encoding="UTF-8"?>
<svg width="16px" height="16px" viewBox="0 0 16 16" version="1.1" xmlns="http://www.w3.org/2000/svg" xmlns:xlink="http://www.w3.org/1999/xlink">
    <title>icon_line_shanchu</title>
    <g id="页面-1" stroke="none" stroke-width="1" fill="none" fill-rule="evenodd">
        <g id="搜索" transform="translate(-291.000000, -91.000000)" fill-rule="nonzero">
            <g id="删除" transform="translate(291.000000, 91.000000)">
                <rect id="矩形" fill="#000000" opacity="0" x="0" y="0" width="16" height="16"></rect>
                <path d="M11.8582812,5.690625 L11.8582812,12.56375 C11.8582812,13.139375 11.39,13.6076562 10.814375,13.6076562 L5.2465625,13.6076562 C4.6709375,13.6076562 4.20265625,13.139375 4.20265625,12.56375 L4.20265625,5.690625 L11.8582812,5.690625 M12.9023438,4.6465625 L3.15859375,4.6465625 L3.15859375,12.56375 C3.15859375,13.716875 4.0934375,14.6517187 5.2465625,14.6517187 L10.814375,14.6517187 C11.9675,14.6517187 12.9023438,13.716875 12.9023438,12.56375 L12.9023438,4.6465625 L12.9023438,4.6465625 Z" id="形状" fill="#666666"></path>
                <path d="M9.76296875,3.02171875 L6.2978125,3.02171875 C6.2978125,2.06484375 7.0734375,1.28921875 8.0303125,1.28921875 C8.9871875,1.28921875 9.76296875,2.06484375 9.76296875,3.02171875 Z" id="路径" fill="#666666"></path>
                <path d="M12.9023438,3.880625 L3.12890625,3.880625 C2.840625,3.880625 2.606875,3.646875 2.606875,3.35859375 C2.606875,3.0703125 2.840625,2.8365625 3.12890625,2.8365625 L12.9023438,2.8365625 C13.190625,2.8365625 13.424375,3.0703125 13.424375,3.35859375 C13.424375,3.646875 13.190625,3.880625 12.9023438,3.880625 Z" id="路径" fill="#666666"></path>
                <path d="M8.015625,14.1675 C7.72734375,14.1675 7.49359375,13.93375 7.49359375,13.6454687 L7.49359375,10.695 C7.49359375,10.4067187 7.72734375,10.1729687 8.015625,10.1729687 C8.30390625,10.1729687 8.53765625,10.4067187 8.53765625,10.695 L8.53765625,13.6454687 C8.53765625,13.93375 8.30390625,14.1675 8.015625,14.1675 L8.015625,14.1675 Z" id="形状" fill="#666666" transform="translate(8.015625, 12.170234) rotate(-270.000000) translate(-8.015625, -12.170234) "></path>
            </g>
        </g>
    </g>
</svg>